<svg id="Layer_1" data-name="Layer 1" xmlns="http://www.w3.org/2000/svg" viewBox="0 0 280 289.38"><defs><style>.cls-1{fill:#4a4469;}.cls-2{fill:#f3d02f;}.cls-3{fill:#ef61a3;}</style></defs><title>awesome-thehive</title><path class="cls-1" d="M43.05,267.08A6,6,0,0,1,47.52,269a6.08,6.08,0,0,1,1.87,4.47v22H26.91a6,6,0,0,1-4.47-1.86,6.15,6.15,0,0,1-1.86-4.48V278.61H44.11v-5.19a1.06,1.06,0,0,0-1.06-1.06H20.58v-5.28Zm1.06,23.05v-6.25H25.85v5.19a1.06,1.06,0,0,0,1.06,1.06ZM95,267.08h5.63L89.94,295.41h-4.3l-9.53-21.06-9,21.06-.09-.05,0,.05H62.82L51.69,267.08h5.59l7.66,18.8,8.16-18.8h6l8.64,18.8Zm29.79,0a6,6,0,0,1,4.47,1.87,6.12,6.12,0,0,1,1.87,4.47v10.46H107.54v5.19a1.06,1.06,0,0,0,1.06,1.06h22.48v5.28H108.6a6,6,0,0,1-4.47-1.86,6.12,6.12,0,0,1-1.87-4.48V273.42a6,6,0,0,1,1.87-4.47,6.08,6.08,0,0,1,4.47-1.87Zm-17.2,11.53H125.8v-5.19a1.06,1.06,0,0,0-1.06-1.06H108.6a1.06,1.06,0,0,0-1.06,1.06v5.19Zm57.18-5.14v1.06h-5.28v-1.06a1,1,0,0,0-.31-.76,1,1,0,0,0-.75-.31H142.24a1,1,0,0,0-.75.31,1,1,0,0,0-.31.76v4.12a1.06,1.06,0,0,0,1.06,1.06h16.14a6.35,6.35,0,0,1,6.34,6.34v4.12a6.05,6.05,0,0,1-1.86,4.48,6.15,6.15,0,0,1-4.48,1.86H142.24a6,6,0,0,1-4.47-1.86,6.13,6.13,0,0,1-1.86-4.48v-1.06h5.27v1.06a1,1,0,0,0,.31.76,1,1,0,0,0,.75.31h16.14a1,1,0,0,0,.75-.31,1,1,0,0,0,.31-.76V285a1.06,1.06,0,0,0-1.06-1.06H142.24a6,6,0,0,1-4.47-1.86,6.15,6.15,0,0,1-1.86-4.48v-4.12a6.05,6.05,0,0,1,1.86-4.48,6.13,6.13,0,0,1,4.47-1.86h16.14a6.09,6.09,0,0,1,4.48,1.86A6,6,0,0,1,164.72,273.47Zm11.17-6.39H192A6,6,0,0,1,196.5,269a6.11,6.11,0,0,1,1.86,4.47v15.65a6.35,6.35,0,0,1-6.34,6.34H175.89a6.05,6.05,0,0,1-4.48-1.86,6.15,6.15,0,0,1-1.86-4.48V273.42a6.37,6.37,0,0,1,6.34-6.34ZM192,272.36H175.89a1,1,0,0,0-.76.31,1,1,0,0,0-.31.75v15.65a1,1,0,0,0,.31.75,1,1,0,0,0,.76.31H192a1,1,0,0,0,.75-.31.94.94,0,0,0,.31-.75V273.42a.94.94,0,0,0-.31-.75A1.13,1.13,0,0,0,192,272.36Zm47.65-5.28a6.37,6.37,0,0,1,6.34,6.34v22h-5.23v-22a1,1,0,0,0-.31-.75,1.08,1.08,0,0,0-.8-.31H228.5a1,1,0,0,0-.75.31.94.94,0,0,0-.31.75v22h-5.28v-22a1.06,1.06,0,0,0-1.06-1.06H209.88a1.06,1.06,0,0,0-1.06,1.06v22h-5.28V267.08Zm33.91,0a6,6,0,0,1,4.47,1.87,6.11,6.11,0,0,1,1.86,4.47v10.46H256.38v5.19a1.06,1.06,0,0,0,1.06,1.06h22.48v5.28H257.44a6,6,0,0,1-4.47-1.86,6.12,6.12,0,0,1-1.87-4.48V273.42A6,6,0,0,1,253,269a6.08,6.08,0,0,1,4.47-1.87Zm-17.2,11.53h18.26v-5.19a1.06,1.06,0,0,0-1.06-1.06H257.44a1.06,1.06,0,0,0-1.06,1.06v5.19Z" transform="translate(-9.6 -6.07)"/><path class="cls-2" d="M150.62,70c13.77,0,25.45,13.34,25.4,24,0,12.75-20.94,13.69-25,13.68h0c-4.59,0-25-.59-24.94-13.84-1-10.71,10.79-23.93,24.55-23.88ZM123.68,201.89l52.5.18,4.55,11.73-61.68-.2Zm7.19-16.8,4.62-11.71,29.57.1,4.55,11.74Zm11.3-28,8.23-19.85,8.09,19.9Zm-61.9,65.56a20.52,20.52,0,0,1-9.67-2.08C57.87,214.92,51.3,200.12,57,187.39c14.38-34.61,57.79-59.45,81.25-62.94l-15.41,37.67h0l-11.31,28h0l-7.2,16.8c-4.61,9.67-13.8,15.76-24,15.73Zm69.72,38c-16.82-.05-30.54-12.34-36.09-31.22l72.39.24c-5.67,19.36-19.47,31-36.3,31Zm79.65-39.5a22,22,0,0,1-9.69,2,25.42,25.42,0,0,1-23.4-15.87l-7.07-16.85h0l-10.62-26.53a7.36,7.36,0,0,0-1-3.07L163.19,124c23.43,4.16,66.68,29.28,80.84,63.48,5.05,13.79-1.12,28.55-14.39,33.6Z" transform="translate(-9.6 -6.07)"/><path class="cls-2" d="M131.29,69.37a5.43,5.43,0,0,1-4.92-3.12l-8.44-17.92a5.43,5.43,0,1,1,9.83-4.63l8.44,17.92a5.44,5.44,0,0,1-4.91,7.75Z" transform="translate(-9.6 -6.07)"/><path class="cls-2" d="M169.4,69.37a5.44,5.44,0,0,1-4.91-7.75l8.44-17.92a5.43,5.43,0,0,1,9.83,4.63l-8.44,17.92A5.43,5.43,0,0,1,169.4,69.37Z" transform="translate(-9.6 -6.07)"/><path class="cls-3" d="M246.42,108.42c-2,4.84-5.63,8.77-7.63,13.63a2.25,2.25,0,0,1-1.07,1.19l29.82,33H31.72l27.45-30.41a1.64,1.64,0,0,1-.14-.22c-.22-.47-.47-.92-.72-1.35a45.76,45.76,0,0,1-3.8-5.88,2.34,2.34,0,0,1-.44-.53c-1.28-2.13-2.85-4.17-4-6.37L9.65,156.25H9.6v52.4c0,23.69,18.91,43,42.12,43H96c23.21,0,42.12-19.3,42.12-43V174.22h23v34.43c0,23.69,18.91,43,42.12,43h44.27c23.22,0,42.12-19.3,42.12-43v-52.4Z" transform="translate(-9.6 -6.07)"/><path class="cls-2" d="M229.28,144.9a5.34,5.34,0,0,1-2.64-.69,5.42,5.42,0,0,1-2.1-7.39l20.92-37.56L197.73,16.94H103L55.3,99.15,78,136.65a5.43,5.43,0,0,1-9.29,5.63L44.34,102a5.44,5.44,0,0,1-.06-5.55L95.12,8.78a5.43,5.43,0,0,1,4.7-2.71h101a5.45,5.45,0,0,1,4.71,2.71l50.84,87.7a5.42,5.42,0,0,1,0,5.37L234,142.11A5.45,5.45,0,0,1,229.28,144.9Z" transform="translate(-9.6 -6.07)"/></svg>